<?xml version="1.0" standalone="no"?>
<!DOCTYPE svg PUBLIC "-//W3C//DTD SVG 20010904//EN"
 "http://www.w3.org/TR/2001/REC-SVG-20010904/DTD/svg10.dtd">
<svg version="1.0" xmlns="http://www.w3.org/2000/svg"
 width="700.000000pt" height="700.000000pt" viewBox="0 0 700.000000 700.000000"
 preserveAspectRatio="xMidYMid meet">
<metadata>
Created by potrace 1.14, written by Peter Selinger 2001-2017
</metadata>
<g transform="translate(0.000000,700.000000) scale(0.100000,-0.100000)"
fill="#000000" stroke="none">
<path d="M3312 6186 c-100 -200 -183 -370 -184 -376 -2 -10 77 -13 375 -14
207 -1 377 0 377 2 0 8 -376 752 -380 752 -3 0 -88 -164 -188 -364z"/>
<path d="M1345 5638 c15 -51 168 -514 176 -533 5 -11 25 -69 44 -129 19 -61
38 -112 40 -114 3 -3 125 115 271 262 147 147 265 269 262 271 -5 5 -782 265
-792 265 -4 0 -4 -10 -1 -22z"/>
<path d="M5250 5528 c-212 -71 -387 -132 -389 -134 -2 -2 116 -124 263 -270
147 -147 269 -265 271 -262 5 4 265 783 265 793 0 10 -29 1 -410 -127z"/>
<path d="M3407 5413 c-1 0 -38 -4 -82 -8 -93 -7 -103 -9 -261 -41 -11 -2 -65
-17 -120 -33 -423 -127 -805 -415 -1054 -796 -127 -194 -244 -492 -274 -700
-4 -23 -9 -52 -11 -65 -21 -107 -22 -377 -1 -535 36 -276 158 -587 324 -825
80 -115 100 -138 222 -261 158 -160 311 -270 505 -364 105 -51 229 -103 264
-110 9 -2 50 -13 91 -24 80 -23 208 -46 305 -56 116 -12 360 -7 455 10 8 1 35
6 60 10 245 38 603 187 775 322 17 13 35 27 40 31 231 168 444 425 575 697 56
114 123 297 135 366 3 18 8 35 10 39 2 3 10 46 19 95 50 299 35 585 -48 871
-148 513 -511 945 -990 1179 -280 136 -526 194 -849 199 -49 0 -89 0 -90 -1z"/>
<path d="M817 3689 l-378 -189 380 -190 c209 -105 381 -190 383 -190 5 0 2
749 -3 754 -2 2 -174 -81 -382 -185z"/>
<path d="M5799 3877 c-4 -8 -3 -741 1 -747 4 -6 428 200 718 349 l43 22 -343
171 c-352 177 -417 209 -419 205z"/>
<path d="M1471 1744 c-73 -218 -130 -398 -128 -401 3 -2 185 56 405 129 l401
133 -268 267 c-148 148 -270 268 -273 268 -3 0 -65 -178 -137 -396z"/>
<path d="M5121 1874 c-145 -145 -262 -266 -260 -269 9 -8 791 -266 796 -261 2
2 -26 93 -62 203 -37 109 -68 203 -69 208 -2 6 -6 17 -9 25 -3 8 -31 93 -63
188 -32 94 -61 172 -64 172 -3 -1 -124 -120 -269 -266z"/>
<path d="M3130 1200 c-4 -3 77 -175 181 -383 l188 -378 42 83 c197 390 337
674 333 678 -6 6 -734 6 -744 0z"/>
</g>
</svg>
