<?xml version="1.0" encoding="UTF-8"?>
<svg width="32px" height="32px" viewBox="0 0 32 32" version="1.1" xmlns="http://www.w3.org/2000/svg" xmlns:xlink="http://www.w3.org/1999/xlink">
    <title>ic/meteo/dia/32/d100</title>
    <g id="ic/meteo/dia/32/d100" stroke="none" stroke-width="1" fill="none" fill-rule="evenodd">
        <path d="M24.6620581,22.1871843 L25.8994949,25.8994949 L22.1871843,24.6620581 L24.6620581,22.1871843 Z M16,7.25 C20.8324916,7.25 24.75,11.1675084 24.75,16 C24.75,19.5239533 22.6668142,22.5613524 19.6647395,23.9479004 C19.215475,21.5330063 17.0354817,19.7090369 14.4242123,19.7090369 L14.1604968,19.7152884 L13.8985494,19.7339759 L13.753,19.75 L13.5966771,19.6232847 C12.4640238,18.7426149 11.0508281,18.25 9.5598807,18.25 L9.28591723,18.2555669 C8.71377598,18.2788488 8.15579291,18.3747977 7.62363165,18.5366213 C7.38072754,17.7350155 7.25,16.8827743 7.25,16 C7.25,11.1675084 11.1675084,7.25 16,7.25 Z M26.5,14.25 L30,16 L26.5,17.75 L26.5,14.25 Z M5.5,14.25 L5.5,17.75 L2,16 L5.5,14.25 Z M25.8994949,6.10050506 L24.6620581,9.81281566 L22.1871843,7.33794193 L25.8994949,6.10050506 Z M6.10050506,6.10050506 L9.81281566,7.33794193 L7.33794193,9.81281566 L6.10050506,6.10050506 Z M16,2 L17.75,5.5 L14.25,5.5 L16,2 Z" id="Combined-Shape" fill="#FCB400"></path>
        <path d="M9.5598807,19.75 C10.8681066,19.75 12.0931514,20.2375426 13.0117431,21.0934466 L13.2905965,21.3532701 L13.6648582,21.2811895 C13.913188,21.2333627 14.1669692,21.2090369 14.4242123,21.2090369 C16.5431546,21.2090369 18.25,22.8548002 18.25,24.871101 C18.25,26.8874198 16.5431363,28.5332387 14.4242123,28.5332387 C13.9598541,28.5332387 13.5076217,28.4540264 13.0820235,28.3013985 L12.7241086,28.1730432 L12.4090258,28.3858836 C11.5811708,28.9451052 10.59554,29.25 9.5598807,29.25 C7.76462385,29.25 6.14097442,28.3274326 5.26321214,26.8655929 L5.08718286,26.5724308 L4.7504246,26.5130662 C3.59444413,26.3092869 2.75,25.3426565 2.75,24.2175356 C2.75,22.97596 3.77359078,21.9445771 5.08084374,21.8855844 L5.41958287,21.870298 L5.63186762,21.6058872 C6.56408202,20.4447698 8.00028214,19.75 9.5598807,19.75 Z" id="Path" fill="#B0B0B0" fill-rule="nonzero"></path>
    </g>
</svg>